# xmcd
#
# Track frame offsets:
#	150
#	9348
#	23780
#	34595
#	44606
#	57404
#	67849
#	81567
#	91801
#	102396
#	114016
#	125813
#	135281
#	151085
#	163020
#	173463
#	187154
#	198888
#	211648
#	221415
#	235665
#	251796
#	260793
#	272678
#	282285
#	297970
#	310666
#	322821
#
# Disc length: 4517 seconds
#
# Revision: 1
# Processed by: cddbd v1.5.2PL0 Copyright (c) Steve Scherf et al.
# Submitted via: audiograbber 1.83.01
#
DISCID=7f11a31c
DTITLE=Charley Pride - 50 Golden Years Of Pride CD1
DYEAR=2018
DGENRE=Country
TTITLE0=Kiss An Angel Good Mornin'
TTITLE1=Kaw-Liga
TTITLE2=Mississippi Cotton Picking Delta Town
TTITLE3=Is Anybody Goin' To San Antone
TTITLE4=Crystal Chandeliers
TTITLE5=Does My Ring Hurt Your Finger
TTITLE6=All I Have To Offer You (Is Me)
TTITLE7=Just Between You And Me
TTITLE8=I'm Just Me
TTITLE9=Wonder Could I Live There Anymore
TTITLE10=It's Gonna Take A Little Bit Longer
TTITLE11=Don't Fight The Feelings Of Love
TTITLE12=Me And Bobby McGee
TTITLE13=My Eyes Can Only See As Far As You
TTITLE14=The Happiness Of Having You
TTITLE15=Hope You're feeling Me (Like I'm Feeling You)
TTITLE16=She's Just An Old Love Turned Memory
TTITLE17=I'll Be Leaving Alone
TTITLE18=Someone Loves You honey
TTITLE19=Burgers And Fries
TTITLE20=You're My Jamaica
TTITLE21=Honky Tonk Blues
TTITLE22=I Don't Think She's In Love Anymore
TTITLE23=Why Baby Why
TTITLE24=You're So Good When You'e Bad
TTITLE25=Mountain Of Love
TTITLE26=Night Games
TTITLE27=Roll On Mississippi
EXTD=
EXTT0=
EXTT1=
EXTT2=
EXTT3=
EXTT4=
EXTT5=
EXTT6=
EXTT7=
EXTT8=
EXTT9=
EXTT10=
EXTT11=
EXTT12=
EXTT13=
EXTT14=
EXTT15=
EXTT16=
EXTT17=
EXTT18=
EXTT19=
EXTT20=
EXTT21=
EXTT22=
EXTT23=
EXTT24=
EXTT25=
EXTT26=
EXTT27=
PLAYORDER=
